<?xml version="1.0" encoding="UTF-8"?> <svg xmlns="http://www.w3.org/2000/svg" id="Слой_2" data-name="Слой 2" viewBox="0 0 370 280" width="370" height="280"><defs><style>.cls-1{fill:none;}.cls-2{fill:#ececec;}.cls-3{fill:#e7e7e7;}.cls-4{fill:#f0f0f0;}.cls-5{fill:#f5f5f5;}.cls-6{fill:#fafafa;}.cls-10,.cls-11,.cls-7{fill:#fff;}.cls-13,.cls-8{fill:#e1e1e1;}.cls-8{opacity:0.6;}.cls-9{fill:#0592a8;}.cls-10{opacity:0.5;}.cls-11{opacity:0.7;}.cls-12{opacity:0.2;}.cls-14{fill:#ffb570;}.cls-15{fill:#1a2e35;}.cls-16{fill:#ff8935;}.cls-17{opacity:0.3;}</style></defs><rect class="cls-1" width="370" height="280"></rect><rect class="cls-2" y="244.44" width="370" height="0.18"></rect><rect class="cls-2" x="308.42" y="256.36" width="24.51" height="0.19"></rect><rect class="cls-2" x="238.67" y="258.36" width="6.43" height="0.19"></rect><rect class="cls-2" x="293.47" y="249.48" width="14.2" height="0.19"></rect><rect class="cls-2" x="38.82" y="250.73" width="31.96" height="0.18"></rect><rect class="cls-2" x="77.37" y="250.73" width="4.69" height="0.18"></rect><rect class="cls-2" x="97.29" y="253.85" width="69.32" height="0.18"></rect><path class="cls-2" d="M175.39,211.44H32.5a4.23,4.23,0,0,1-4.23-4.22V6.36A4.24,4.24,0,0,1,32.5,2.13H175.39a4.23,4.23,0,0,1,4.22,4.23V207.22A4.22,4.22,0,0,1,175.39,211.44ZM32.5,2.32a4,4,0,0,0-4,4V207.22a4,4,0,0,0,4,4H175.39a4,4,0,0,0,4-4V6.36a4,4,0,0,0-4-4Z"></path><path class="cls-2" d="M335.45,211.44H192.56a4.23,4.23,0,0,1-4.23-4.22V6.36a4.24,4.24,0,0,1,4.23-4.23H335.45a4.23,4.23,0,0,1,4.22,4.23V207.22A4.22,4.22,0,0,1,335.45,211.44ZM192.56,2.32a4,4,0,0,0-4,4V207.22a4,4,0,0,0,4,4H335.45a4,4,0,0,0,4-4V6.36a4,4,0,0,0-4-4Z"></path><rect class="cls-3" x="191.17" y="168.28" width="21.38" height="76.16" transform="translate(403.73 412.73) rotate(180)"></rect><polygon class="cls-4" points="195.23 244.44 191.17 244.44 191.17 237.38 199.49 237.38 195.23 244.44"></polygon><rect class="cls-3" x="313.15" y="168.28" width="21.38" height="76.16" transform="translate(647.67 412.73) rotate(180)"></rect><rect class="cls-4" x="191.17" y="168.28" width="125.52" height="74.31" transform="translate(507.87 410.88) rotate(180)"></rect><rect class="cls-3" x="261.03" y="186.98" width="65.77" height="37.21" transform="translate(88.33 499.5) rotate(-90)"></rect><path class="cls-4" d="M290.23,176.47h7.36a10.94,10.94,0,0,0,8.46-4.25H281.78A10.94,10.94,0,0,0,290.23,176.47Z"></path><rect class="cls-3" x="221.05" y="186.98" width="65.77" height="37.21" transform="translate(48.35 459.52) rotate(-90)"></rect><path class="cls-4" d="M249.88,176.47h7.36a10.94,10.94,0,0,0,8.45-4.25H241.42A10.94,10.94,0,0,0,249.88,176.47Z"></path><rect class="cls-3" x="181.06" y="186.98" width="65.77" height="37.21" transform="translate(8.37 419.53) rotate(-90)"></rect><path class="cls-4" d="M209.89,176.47h7.37a10.94,10.94,0,0,0,8.45-4.25H201.44A10.94,10.94,0,0,0,209.89,176.47Z"></path><polygon class="cls-4" points="312.63 244.44 316.69 244.44 316.69 237.38 308.37 237.38 312.63 244.44"></polygon><rect class="cls-3" x="56.72" y="26.36" width="143.43" height="122.12" transform="translate(256.88 174.84) rotate(180)"></rect><rect class="cls-5" x="53.5" y="26.36" width="145.26" height="122.12" transform="translate(252.25 174.84) rotate(180)"></rect><rect class="cls-6" x="70.92" y="20.59" width="110.4" height="133.67" transform="translate(213.54 -38.7) rotate(90)"></rect><polygon class="cls-7" points="176.56 142.62 123.95 32.22 106.08 32.22 158.69 142.62 176.56 142.62"></polygon><polygon class="cls-7" points="153.62 142.62 101.01 32.22 88.71 32.22 141.32 142.62 153.62 142.62"></polygon><rect class="cls-3" x="50.26" y="83.96" width="110.4" height="6.91" transform="translate(192.89 -18.04) rotate(90)"></rect><rect class="cls-3" x="96.21" y="83.96" width="110.4" height="6.91" transform="translate(238.83 -63.99) rotate(90)"></rect><rect class="cls-5" x="44.07" y="82.73" width="118.48" height="8.74" transform="translate(190.41 -16.21) rotate(90)"></rect><rect class="cls-5" x="90.01" y="82.73" width="118.48" height="8.74" transform="translate(236.35 -62.15) rotate(90)"></rect><rect class="cls-3" x="4.4" y="87.11" width="110.4" height="0.62" transform="translate(147.02 27.82) rotate(90)"></rect><path class="cls-3" d="M51.06,18.82H206.45a.76.76,0,0,1,.75.75h0a.76.76,0,0,1-.75.75H51.06a.75.75,0,0,1-.74-.75h0A.75.75,0,0,1,51.06,18.82Z"></path><path class="cls-3" d="M200.15,23.75h0a1,1,0,0,0,1-1V20.58a1,1,0,0,0-1-1h0a1,1,0,0,0-1,1v2.16A1,1,0,0,0,200.15,23.75Z"></path><path class="cls-3" d="M62.33,23.75h0a1,1,0,0,0,1-1V20.58a1,1,0,0,0-1-1h0a1,1,0,0,0-1,1v2.16A1,1,0,0,0,62.33,23.75Z"></path><rect class="cls-8" x="51.3" y="19.57" width="145.15" height="60.61" transform="translate(247.75 99.75) rotate(180)"></rect><rect class="cls-3" x="53.29" y="183.29" width="3.73" height="61.16" transform="translate(110.3 427.73) rotate(180)"></rect><rect class="cls-3" x="120.58" y="171.39" width="20.19" height="11.9"></rect><rect class="cls-5" x="40.37" y="171.39" width="80.21" height="11.9" transform="translate(160.96 354.68) rotate(180)"></rect><rect class="cls-3" x="120.58" y="190.69" width="20.19" height="11.9"></rect><rect class="cls-5" x="40.37" y="190.69" width="80.21" height="11.9" transform="translate(160.96 393.28) rotate(180)"></rect><rect class="cls-3" x="120.58" y="209.99" width="20.19" height="11.9"></rect><rect class="cls-5" x="40.37" y="209.99" width="80.21" height="11.9" transform="translate(160.96 431.88) rotate(180)"></rect><rect class="cls-3" x="133.5" y="183.29" width="3.73" height="61.16" transform="translate(270.72 427.73) rotate(180)"></rect><rect class="cls-5" x="116.86" y="183.29" width="3.73" height="61.16" transform="translate(237.44 427.73) rotate(180)"></rect><rect class="cls-5" x="40.37" y="183.29" width="3.73" height="61.16" transform="translate(84.48 427.73) rotate(180)"></rect><ellipse id="_Path_" data-name="&lt;Path&gt;" class="cls-5" cx="185" cy="269.49" rx="143.48" ry="8.38"></ellipse><path class="cls-9" d="M293.05,235.89H172.86a8.43,8.43,0,0,1-8.5-9.21l14.72-193A10.15,10.15,0,0,1,189,24.51H309.17a8.44,8.44,0,0,1,8.51,9.21L303,226.68A10.13,10.13,0,0,1,293.05,235.89Z"></path><path class="cls-10" d="M293.05,235.89H172.86a8.43,8.43,0,0,1-8.5-9.21l14.72-193A10.15,10.15,0,0,1,189,24.51H309.17a8.44,8.44,0,0,1,8.51,9.21L303,226.68A10.13,10.13,0,0,1,293.05,235.89Z"></path><path class="cls-9" d="M291.26,235.89H171.07a8.43,8.43,0,0,1-8.5-9.21l14.72-193a10.15,10.15,0,0,1,9.91-9.21H307.38a8.44,8.44,0,0,1,8.51,9.21l-14.73,193A10.13,10.13,0,0,1,291.26,235.89Z"></path><path class="cls-11" d="M291.26,235.89H171.07a8.43,8.43,0,0,1-8.5-9.21l14.72-193a10.15,10.15,0,0,1,9.91-9.21H307.38a8.44,8.44,0,0,1,8.51,9.21l-14.73,193A10.13,10.13,0,0,1,291.26,235.89Z"></path><path class="cls-9" d="M171.31,232.82a5.61,5.61,0,0,1-5.67-6.14l14.53-190.4a6.74,6.74,0,0,1,6.6-6.14H307a5.61,5.61,0,0,1,5.66,6.14L298.1,226.68a6.75,6.75,0,0,1-6.61,6.14Z"></path><path class="cls-12" d="M290.65,62.17h-86a3.34,3.34,0,0,1-3.36-3.64h0a4,4,0,0,1,3.91-3.64h86a3.34,3.34,0,0,1,3.36,3.64h0A4,4,0,0,1,290.65,62.17Z"></path><path class="cls-9" d="M254,28.26H240.06a.82.82,0,0,1-.83-.89h0a1,1,0,0,1,1-.9h13.89a.83.83,0,0,1,.83.9h0A1,1,0,0,1,254,28.26Z"></path><path class="cls-4" d="M204.26,58.53A9.2,9.2,0,0,0,195,48.46h87.32a9.21,9.21,0,0,1,9.3,10.07Z"></path><path class="cls-7" d="M195,48.46a11.05,11.05,0,0,0-10.83,10.07L175.18,175.8a11,11,0,0,1-10.83,10.06h87.31A11.06,11.06,0,0,0,262.5,175.8l8.94-117.27a11.06,11.06,0,0,1,10.84-10.07Z"></path><path class="cls-4" d="M242.36,175.8a9.2,9.2,0,0,0,9.3,10.06H164.35a9.19,9.19,0,0,1-9.3-10.06Z"></path><path class="cls-13" d="M191.26,173.48c.32-4.28-1-7.75-5.3-7.75H253.2c4.28,0,7.49,3.91,5.29,7.75Z"></path><path class="cls-4" d="M242.36,175.8a11.06,11.06,0,0,1,10.84-10.07H165.88a11,11,0,0,0-10.83,10.07Z"></path><path class="cls-7" d="M283.65,204.87H183.41a2.42,2.42,0,0,1-2.44-2.64h0a2.91,2.91,0,0,1,2.85-2.64H284.05a2.41,2.41,0,0,1,2.44,2.64h0A2.91,2.91,0,0,1,283.65,204.87Z"></path><path class="cls-7" d="M233,217.57H182.44a2.42,2.42,0,0,1-2.44-2.64h0a2.91,2.91,0,0,1,2.85-2.64h50.58a2.42,2.42,0,0,1,2.45,2.64h0A2.93,2.93,0,0,1,233,217.57Z"></path><path class="cls-7" d="M268.05,217.57H247.56a2.42,2.42,0,0,1-2.44-2.64h0a2.91,2.91,0,0,1,2.85-2.64h20.49a2.42,2.42,0,0,1,2.44,2.64h0A2.91,2.91,0,0,1,268.05,217.57Z"></path><path class="cls-9" d="M190,81.11h2.48l-.61,8h-2.49Z"></path><path class="cls-9" d="M194.26,81.11h2.32l2.69,4.44.34-4.44H202l-.62,8H199l-2.67-4.41L196,89.14h-2.33Z"></path><path class="cls-9" d="M202.81,81.11h2.59l1.37,5.78L209,81.11h2.52l-3.6,8h-2.69Z"></path><path class="cls-9" d="M211.33,85.13A4.16,4.16,0,0,1,215.79,81a3.91,3.91,0,0,1,3,1.08,3.83,3.83,0,0,1,.86,3,5.34,5.34,0,0,1-.65,2.31,3.85,3.85,0,0,1-1.48,1.41,4.79,4.79,0,0,1-2.27.5,4.9,4.9,0,0,1-2.22-.43,3.06,3.06,0,0,1-1.34-1.37A4.31,4.31,0,0,1,211.33,85.13Zm2.48,0a2.54,2.54,0,0,0,.32,1.75,1.42,1.42,0,0,0,1.19.53,1.62,1.62,0,0,0,1.27-.52,3.16,3.16,0,0,0,.59-1.87,2.4,2.4,0,0,0-.34-1.66,1.42,1.42,0,0,0-1.2-.52,1.63,1.63,0,0,0-1.24.53A2.88,2.88,0,0,0,213.81,85.14Z"></path><path class="cls-9" d="M221.39,81.11h2.49l-.61,8h-2.49Z"></path><path class="cls-9" d="M230.65,85.85l2.13.66A4.63,4.63,0,0,1,232,88a3.41,3.41,0,0,1-1.24.93,4.51,4.51,0,0,1-1.8.31,5.06,5.06,0,0,1-2.12-.38,3.07,3.07,0,0,1-1.33-1.34,4.33,4.33,0,0,1-.41-2.45A4.51,4.51,0,0,1,226.36,82,4.35,4.35,0,0,1,229.45,81a3.86,3.86,0,0,1,2.34.61,3.27,3.27,0,0,1,1.14,1.89L230.7,84a1.61,1.61,0,0,0-.2-.54A1.24,1.24,0,0,0,230,83a1.47,1.47,0,0,0-.67-.15,1.56,1.56,0,0,0-1.34.68,3,3,0,0,0-.46,1.58,2.9,2.9,0,0,0,.26,1.83,1.31,1.31,0,0,0,1.11.5A1.5,1.5,0,0,0,230,87,2.7,2.7,0,0,0,230.65,85.85Z"></path><path class="cls-9" d="M234.39,81.11H241l-.13,1.71h-4.16l-.1,1.28h3.86l-.12,1.64h-3.87l-.12,1.58h4.29l-.14,1.82h-6.77Z"></path><polygon class="cls-9" points="260.75 99.52 188.57 99.52 188.72 97.52 260.9 97.52 260.75 99.52"></polygon><polygon class="cls-4" points="260.75 99.52 188.57 99.52 188.1 105.65 260.28 105.65 260.75 99.52"></polygon><polygon class="cls-4" points="259.81 111.78 187.64 111.78 187.17 117.91 259.35 117.91 259.81 111.78"></polygon><polygon class="cls-4" points="258.88 124.04 186.7 124.04 186.23 130.16 258.41 130.16 258.88 124.04"></polygon><polygon class="cls-4" points="257.94 136.29 185.76 136.29 185.3 142.42 257.47 142.42 257.94 136.29"></polygon><polygon class="cls-9" points="256.85 150.55 184.68 150.55 184.83 148.55 257.01 148.55 256.85 150.55"></polygon><polygon class="cls-4" points="248.6 62.17 263.6 62.17 262.92 71.12 247.91 71.12 248.6 62.17"></polygon><path class="cls-14" d="M101.51,119.09l2.69,1.08a6.08,6.08,0,0,1,2.48,1.86l1.23,1.56a2.72,2.72,0,0,1-.09,3.48l-1.31,1.49a2.71,2.71,0,0,1-3.87.23l-1.25-1.12s-3.85-2.71-5-6.28l.74-.74A5.16,5.16,0,0,1,101.51,119.09Z"></path><path class="cls-14" d="M108.86,93.13l-.88.58-1,.66c-.64.46-1.29.93-1.92,1.42-1.27,1-2.5,2-3.64,3.07a30,30,0,0,0-5.72,7c-.19.31-.35.62-.51.94l-.12.23a1.65,1.65,0,0,0,.1-.67c-.07-.22-.08.34.09.89a23,23,0,0,0,1.77,4.1c1.52,2.91,3.43,5.91,5.23,8.86l0,.08a2.6,2.6,0,0,1-3.81,3.41A47.26,47.26,0,0,1,94.3,120a48.67,48.67,0,0,1-3.86-4.21,25.47,25.47,0,0,1-3.4-5.27,14.63,14.63,0,0,1-.7-1.83,9.26,9.26,0,0,1-.38-2.49,7.75,7.75,0,0,1,.18-1.7,9.31,9.31,0,0,1,.28-.94l.15-.38c.18-.51.39-1,.6-1.5a34.76,34.76,0,0,1,7.06-10.13,44.84,44.84,0,0,1,4.44-4c.78-.61,1.58-1.2,2.4-1.76.42-.28.83-.56,1.26-.82l.66-.4.75-.44a5.17,5.17,0,0,1,5.45,8.79Z"></path><path class="cls-15" d="M108.94,81.39c-4.32,0-9.06,1.87-15.13,9.39,0,4.5,9.49,10.47,9.49,10.47S118.84,81.33,108.94,81.39Z"></path><path class="cls-15" d="M76.84,259.28a.93.93,0,0,1-.23,0c-.9-.32-1.74-2.6-1.8-3.87a.21.21,0,0,1,.34-.17c.1.08,2.33,1.9,2.43,3.13a.82.82,0,0,1-.2.67A.74.74,0,0,1,76.84,259.28Zm-1.55-3.42c.2,1.21.88,2.78,1.46,3,.08,0,.18,0,.32-.11a.48.48,0,0,0,.1-.36C77.11,257.65,76,256.52,75.29,255.86Z"></path><path class="cls-15" d="M78.23,256.56a7.12,7.12,0,0,1-3.32-1,.21.21,0,0,1,.06-.38c.12,0,2.91-.76,4-.12a.86.86,0,0,1,.42.56.69.69,0,0,1-.26.76A1.54,1.54,0,0,1,78.23,256.56Zm-2.65-1.12c1.09.55,2.77.92,3.27.58.07,0,.14-.13.1-.33a.5.5,0,0,0-.23-.29C78.1,255,76.54,255.24,75.58,255.44Z"></path><path class="cls-9" d="M67.15,254.87A34.85,34.85,0,0,0,72.67,247s6.86,1.69,5.52,3.67c-2.45,3.59-3.64,11-.49,14.92,1.8,2.25-1,2.63-2.93,1.66-3-1.54-2.86-2.11-4.41-4.65-1.33-2.17-1.86-3-3.68-3.95C65.15,257.91,65.89,256.41,67.15,254.87Z"></path><path class="cls-15" d="M125.39,126s-10,48.54-17.25,69.27c-7.65,21.78-28.77,55.37-29.58,56.82-3-.8-5.69-1.86-7.47-3.6,0,0,9.92-36.44,19.59-60.09,3.66-49.35,11.75-62.4,11.75-62.4Z"></path><path class="cls-12" d="M110.19,152c-.45,9.39-.76,22.3-.32,38,3-9.8,6.35-23.08,9.13-35C117.15,152.51,114.26,151.32,110.19,152Z"></path><path class="cls-14" d="M110.79,66.47c1,4.22,2.07,11.11.4,14.77,0,0,6.23.28,14.2,6.64,3.75-5.51-.59-6.59-.59-6.59-3.31-.78-3.15-5.19-3.15-8.33Z"></path><path class="cls-9" d="M109.22,83.16c-3.11-.34-1-6.25.66-5.67,4.08,1.45,13.24-.17,16.07,1.39a4.47,4.47,0,0,1,2.12,4.77S112.57,83.53,109.22,83.16Z"></path><path class="cls-11" d="M109.22,83.16c-3.11-.34-1-6.25.66-5.67,4.08,1.45,13.24-.17,16.07,1.39a4.47,4.47,0,0,1,2.12,4.77S112.57,83.53,109.22,83.16Z"></path><path class="cls-15" d="M127.35,59c.1.56.49,1,.85.9s.59-.57.49-1.14-.48-1-.85-.9S127.25,58.45,127.35,59Z"></path><path class="cls-15" d="M127.68,57.94,129,57.3S128.46,58.49,127.68,57.94Z"></path><path class="cls-15" d="M128.11,54.5a.35.35,0,0,0,0-.25.34.34,0,0,0-.41-.24,3.37,3.37,0,0,0-2.33,2,.33.33,0,0,0,.22.42.33.33,0,0,0,.42-.21,2.67,2.67,0,0,1,1.86-1.57A.36.36,0,0,0,128.11,54.5Z"></path><path class="cls-16" d="M128,60.39a15.32,15.32,0,0,0,2.42,3.43,2.48,2.48,0,0,1-2,.59Z"></path><path class="cls-14" d="M108,58.73c1.65,6.86,2.2,9.8,6.27,12.76,6.12,4.44,14,.93,14.42-6.28.35-6.5-2.4-16.63-9.55-18.21A9.48,9.48,0,0,0,108,58.73Z"></path><path class="cls-15" d="M121.34,60c4-5.34,6.68-9.66,4.69-14.39-1.67-4-6.28-2.79-6.92-.82-12.26-1.05-16.66,3.39-14.13,10.74,1.61,4.68-4.65,2.25-3.12,8.2,1.17,4.56-3,6.29-.86,8.91,3,3.79,9.24-1.15,16.36,1.69C123.18,76.64,131.92,73.13,121.34,60Z"></path><path class="cls-14" d="M120.69,61.07a4.49,4.49,0,0,0,3.07,2.11c1.61.24,2.16-1.56,1.5-3.24-.59-1.5-2.14-3.44-3.66-2.9S119.78,59.63,120.69,61.07Z"></path><path class="cls-15" d="M123.08,263.8a6.58,6.58,0,0,1-3.5-1.53.19.19,0,0,1-.06-.21.2.2,0,0,1,.17-.15c.12,0,3-.32,3.94.46a.87.87,0,0,1,.34.62.68.68,0,0,1-.38.71A1.13,1.13,0,0,1,123.08,263.8Zm-2.82-1.52c1,.7,2.61,1.32,3.15,1.05.08,0,.16-.11.14-.31a.46.46,0,0,0-.18-.32C122.81,262.23,121.23,262.22,120.26,262.28Z"></path><path class="cls-15" d="M119.72,262.33a.21.21,0,0,1-.18-.31c.06-.11,1.49-2.61,2.69-2.91a.83.83,0,0,1,.69.09.68.68,0,0,1,.36.72c-.17.94-2.28,2.14-3.52,2.4Zm2.76-2.84-.15,0c-.7.18-1.64,1.45-2.16,2.27,1.15-.4,2.59-1.33,2.7-1.93,0-.09,0-.19-.17-.3A.43.43,0,0,0,122.48,259.49Z"></path><path class="cls-9" d="M128.58,266.4c-6-.46-10-4.58-9.61-8.94.23-2.4-7.45-2.62-7.45-2.62,1.21,7.46-.31,8.52-.82,10.45s-.38,4,1.21,4.09c1.91.05,2.8-.32,5.16-.22,2.77.1,5.76.21,10.68.22C129.71,269.38,131.24,266.61,128.58,266.4Z"></path><path class="cls-15" d="M135.75,126s-.53,36.76-3.43,60.92-12.88,71.55-12.88,71.55a16.7,16.7,0,0,1-8-.07s-3.15-37,2.15-72.79c-3.9-37.49-6.33-59.61-6.33-59.61Z"></path><path class="cls-9" d="M137.11,92c-.13,2.84,4.36,9.4-1.18,13.21,1,2.31,1.91,18-.18,20.8-3.06,2.24-19.6,1.81-33.32,0-.57-5.67,2.55-17.42-1.28-35.73a7.31,7.31,0,0,1,6.42-8.76c1.15-.11,2.37-.21,3.62-.27a92.56,92.56,0,0,1,13.12,0c1.42.13,2.88.31,4.28.51A9.9,9.9,0,0,1,137.11,92Z"></path><g class="cls-17"><path class="cls-15" d="M101.5,89.28a3.07,3.07,0,0,1-.31.17h0a.19.19,0,0,0-.08.26.19.19,0,0,0,.26.08l.33-.19c1.47.54,3.06,1.77,4,1.89-1.46-1.29-2.52-2.22-3.68-2l1-.64c1.35.5,2.81,1.63,3.65,1.74-1.36-1.2-2.34-2.06-3.41-1.89l.75-.52c.14-.09.28-.2.42-.3,1.22.53,2.51,1.65,3.27,1.8-1.22-1.21-2.08-2.07-3.12-1.9l1-.74c1.12.49,2.31,1.51,3,1.65-1.13-1.12-1.92-1.91-2.88-1.76.27-.21.54-.43.8-.66l.19-.16c1,.51,2,1.53,2.61,1.72-.93-1.12-1.58-1.89-2.56-1.76l.75-.67c.91.47,1.81,1.41,2.4,1.58-.86-1-1.46-1.74-2.35-1.62l.77-.73c.8.48,1.55,1.37,2.08,1.56-.72-1-1.22-1.65-2-1.62.14-.13.28-.27.41-.41l.24-.24c.73.45,1.43,1.27,1.91,1.44-.66-.9-1.12-1.52-1.86-1.49.22-.22.43-.45.64-.68.67.36,1.29,1,1.74,1.18-.59-.76-1-1.28-1.71-1.21l.11-.13.45-.51c.61.33,1.18,1,1.59,1.07-.54-.69-.92-1.17-1.55-1.12a7.89,7.89,0,0,0,.49-.65.06.06,0,1,0-.1-.07h0c-.15.21-.31.41-.47.6a1.38,1.38,0,0,0-.27-1l-.25,0a8.21,8.21,0,0,1,.4,1.09l-.4.45-.1.1c.14-.53-.14-1-.57-1.6l-.14,0c.12.45.47,1.08.61,1.69l-.59.6c.18-.68-.28-1.28-1-2.13,0,.51.63,1.39.86,2.21l-.21.21-.4.38c.19-.73-.32-1.38-1-2.29a23.77,23.77,0,0,0,.93,2.39l-.72.64c.16-.74-.33-1.46-1-2.44a22.94,22.94,0,0,0,.85,2.59l-.59.5c.17-.81-.36-1.59-1.1-2.66a26.88,26.88,0,0,0,.92,2.81l-.16.13-.82.65c.22-.82-.29-1.75-1-3a28.53,28.53,0,0,0,.75,3.19c-.31.24-.62.47-.94.69.36-.93-.22-2-1-3.43-.06.77.63,2.27.83,3.56l-.28.19-.88.58c.41-.94-.09-2-.82-3.57,0,.06-.07.11-.1.16.06.89.57,2.31.68,3.55-.33.2-.66.4-1,.58a3.27,3.27,0,0,0-.31-2.78,7.53,7.53,0,0,0-.26,1A12.32,12.32,0,0,1,101.5,89.28Z"></path><path class="cls-15" d="M120.41,84.15c-1.12-.71-2.22-2-3-2.29,1,1.39,1.74,2.37,2.79,2.37l-1.06.58c-1-.66-2-1.86-2.71-2.1.94,1.28,1.6,2.18,2.56,2.18l-.89.53-.22.14c-.89-.67-1.69-1.84-2.3-2.12.75,1.25,1.26,2.12,2.25,2.15-.28.17-.57.35-.85.54-.82-.62-1.55-1.69-2.11-1.95.68,1.15,1.16,1.95,2.06,2l-.88.6c-.71-.61-1.31-1.6-1.8-1.87.55,1.07.94,1.82,1.74,1.91l-.48.34-.27.2c-.65-.55-1.21-1.47-1.66-1.72.51,1,.86,1.68,1.6,1.77-.25.18-.49.37-.73.56-.61-.46-1.12-1.24-1.54-1.44.46.85.79,1.43,1.5,1.47l-.13.11c-.18.14-.35.29-.52.44-.55-.43-1-1.13-1.4-1.32.42.77.71,1.3,1.35,1.36a7.7,7.7,0,0,0-.59.56.06.06,0,0,0,.09.09h0a5.48,5.48,0,0,1,.56-.52c-.18.5.08,1,.44,1.71a13.29,13.29,0,0,0-.31-1.82l.47-.38.12-.09c-.26.57,0,1.14.44,1.94a16.92,16.92,0,0,0-.33-2l.68-.51c-.29.65.08,1.32.6,2.26,0-.51-.4-1.48-.5-2.32l.24-.18.46-.31c-.3.69.09,1.41.65,2.43a22.1,22.1,0,0,0-.54-2.51l.81-.52c-.27.7.1,1.49.61,2.57a21.28,21.28,0,0,0-.42-2.69l.66-.4c-.3.77.1,1.62.66,2.8a22.27,22.27,0,0,0-.46-2.92l.18-.1c.3-.18.6-.35.91-.51-.35.77,0,1.77.5,3.12a26.88,26.88,0,0,0-.24-3.27l1-.53c-.5.86-.1,2,.47,3.55.18-.75-.27-2.34-.26-3.65l.31-.14,1-.43c-.58.9-.21,2.14.3,3.86.25-.79-.14-2.54,0-4,.36-.15.72-.29,1.09-.42-.7,1-.3,2.35.27,4.26.27-.86-.16-2.79,0-4.34l.33-.11h0a.21.21,0,0,0,.12-.25.19.19,0,0,0-.25-.11l-.36.13a25.08,25.08,0,0,1-2.46-1.8h-.59c1,1.14,1.76,1.91,2.74,1.92l-1.12.47c-1.25-.71-2.51-2-3.32-2.3,1.15,1.41,2,2.41,3.07,2.41l-.83.39Z"></path><path class="cls-15" d="M111.16,98c-.81-.89-1.38-1.51-2.18-1.38l.37-.45.2-.27c.78.36,1.56,1.1,2.06,1.22-.75-.82-1.28-1.39-2-1.28.19-.24.37-.49.55-.74.71.28,1.41.9,1.87,1-.67-.69-1.14-1.17-1.84-1l.1-.13.39-.57a16.14,16.14,0,0,0,1.7.89c-.61-.62-1-1.06-1.67-.94a8.1,8.1,0,0,0,.42-.7.06.06,0,0,0,0-.08.05.05,0,0,0-.08,0h0a7.06,7.06,0,0,1-.4.65c0-.53-.35-1-.88-1.53a15,15,0,0,0,.78,1.68l-.35.49-.09.11c.09-.62-.34-1.09-.95-1.75a20.48,20.48,0,0,0,.86,1.86c-.17.23-.34.45-.52.67.11-.7-.42-1.25-1.18-2a22.82,22.82,0,0,0,1.11,2.11l-.19.23-.36.42c.11-.74-.47-1.33-1.28-2.16.1.54.84,1.42,1.19,2.27l-.63.72c.07-.75-.5-1.41-1.28-2.32A23,23,0,0,0,108,97.45l-.52.56c.08-.81-.54-1.53-1.39-2.51a26.78,26.78,0,0,0,1.22,2.69l-.14.14c-.24.25-.49.5-.74.74.13-.84-.48-1.7-1.32-2.88a27.55,27.55,0,0,0,1.1,3.09l-.85.79c.25-1-.44-1.94-1.4-3.29,0,.76.88,2.17,1.22,3.44l-.26.22c-.26.23-.54.45-.81.67.31-1-.37-2.12-1.33-3.64,0,.83.82,2.41,1.11,3.81q-.45.36-.93.69a2.7,2.7,0,0,0-.28-2.09c.09.89.16,1.75.22,2.59l.1-.07c1.52.37,3.24,1.41,4.16,1.43-1.6-1.12-2.76-1.93-3.89-1.63.33-.24.64-.49,1-.75,1.4.35,3,1.31,3.82,1.33-1.48-1-2.55-1.79-3.6-1.5l.69-.6.39-.35c1.26.39,2.67,1.36,3.45,1.42-1.35-1.06-2.31-1.82-3.32-1.54q.44-.4.87-.84c1.16.36,2.45,1.25,3.17,1.31-1.25-1-2.13-1.68-3.06-1.43.25-.24.49-.49.72-.74l.18-.19c1,.4,2.12,1.31,2.78,1.42-1-1-1.78-1.7-2.74-1.46l.67-.75c1,.37,2,1.2,2.56,1.31-1-.93-1.64-1.57-2.52-1.36l.69-.81C109.77,97.06,110.62,97.86,111.16,98Z"></path><path class="cls-15" d="M124.05,97.45a21.92,21.92,0,0,0-2,1.8c-.24-.11-.47-.22-.69-.34.8-.16,1.31-1,2-2.06a26.53,26.53,0,0,0-2.22,2l-.18-.09-.92-.49c.84-.13,1.49-1,2.37-2.1a27.33,27.33,0,0,0-2.63,1.95c-.34-.19-.68-.38-1-.59,1,0,1.73-1,2.74-2.3-.72.25-1.82,1.48-2.94,2.18l-.28-.18c-.3-.19-.59-.39-.88-.59,1.07,0,1.92-1,3.1-2.33-.8.23-2.07,1.49-3.32,2.18-.32-.22-.63-.45-.94-.69,1.21.06,2.14-1,3.45-2.53-.87.25-2.26,1.64-3.63,2.38l-.28-.22h0a.19.19,0,1,0-.24.3l.31.23c.08,1.56-.41,3.51-.16,4.4.6-1.86,1-3.2.42-4.2q.49.36,1,.69c.08,1.44-.37,3.23-.14,4,.56-1.72,1-3,.38-3.88.25.17.51.33.77.49l.45.26c0,1.33-.52,3-.36,3.72.63-1.6,1.07-2.74.51-3.63.35.21.7.4,1.06.59,0,1.22-.48,2.71-.33,3.41.58-1.47,1-2.52.47-3.33l.93.47.23.11c-.09,1.11-.64,2.41-.55,3.07.66-1.3,1.11-2.2.6-3.05l.91.43c-.08,1-.58,2.22-.5,2.83.6-1.2,1-2,.56-2.81l1,.43c-.13.92-.65,2-.61,2.52.61-1,1-1.77.68-2.49l.54.22.32.12c-.12.84-.6,1.81-.56,2.32.56-1,1-1.63.62-2.3l.88.32a19.28,19.28,0,0,0-.39,2.07c.46-.85.78-1.43.43-2.06l.16.06.65.2c-.06.69-.41,1.46-.36,1.89.42-.77.72-1.31.42-1.87.26.07.52.14.79.19a.05.05,0,0,0,.07,0,.06.06,0,0,0,0-.07h0c-.24,0-.49-.12-.73-.19.52-.12.81-.61,1.21-1.29-.38.17-.84.82-1.38,1.23l-.57-.19-.13,0c.62-.09.94-.64,1.39-1.41-.42.18-.93.91-1.53,1.36l-.79-.3c.7-.1,1.07-.77,1.59-1.72-.46.23-1,1.13-1.7,1.67l-.27-.11-.51-.22c.74-.12,1.14-.84,1.69-1.85-.49.24-1.11,1.21-1.82,1.8l-.87-.4C123,99.2,123.41,98.46,124.05,97.45Z"></path><path class="cls-15" d="M119.77,107.32c.66.22,1.33.73,1.75.78-.64-.59-1.1-1-1.72-.83a7.14,7.14,0,0,0,.37-.73.06.06,0,0,0,0-.08s-.06,0-.08,0h0a6.11,6.11,0,0,1-.35.67c0-.54-.41-.93-1-1.47a14.06,14.06,0,0,0,.88,1.62c-.1.17-.21.34-.32.51l-.07.12c0-.62-.41-1.07-1.06-1.68a18.75,18.75,0,0,0,1,1.8l-.48.7c.06-.71-.5-1.22-1.31-1.94a21.58,21.58,0,0,0,1.24,2l-.17.24-.34.45c.06-.75-.55-1.3-1.41-2.08a24.34,24.34,0,0,0,1.33,2.19c-.19.26-.39.51-.59.76,0-.76-.58-1.38-1.42-2.23a23.13,23.13,0,0,0,1.28,2.4l-.49.6c0-.82-.63-1.5-1.54-2.43a23.56,23.56,0,0,0,1.39,2.61l-.13.15q-.34.4-.69.78c.07-.84-.6-1.66-1.51-2.78a27.49,27.49,0,0,0,1.3,3q-.39.42-.81.84c.19-1-.55-1.91-1.6-3.2.07.76,1,2.12,1.44,3.36l-.24.24-.78.72c.26-1-.5-2.09-1.55-3.55,0,.83,1,2.36,1.35,3.73-.29.26-.58.51-.89.75.34-1.16-.49-2.32-1.65-3.94,0,.91,1.06,2.58,1.47,4.08l-.28.22h0a.19.19,0,0,0,.23.29c.1-.07.2-.16.3-.24,1.54.28,3.32,1.21,4.24,1.17-1.67-1-2.87-1.75-4-1.38q.47-.39.9-.81c1.42.26,3,1.11,3.9,1.08-1.55-.94-2.67-1.62-3.69-1.27l.65-.63.36-.38c1.29.31,2.76,1.19,3.53,1.2-1.41-1-2.41-1.67-3.4-1.33l.81-.89c1.18.29,2.53,1.09,3.24,1.1-1.3-.9-2.22-1.54-3.13-1.22l.67-.8.16-.19c1.06.33,2.2,1.17,2.86,1.24-1.11-.94-1.88-1.59-2.82-1.29.21-.26.42-.52.62-.79,1,.31,2,1.08,2.64,1.15-1-.87-1.74-1.46-2.6-1.2.21-.28.43-.56.64-.85.86.34,1.76,1.08,2.31,1.17-.87-.83-1.48-1.41-2.27-1.23l.34-.48.19-.28c.8.31,1.63,1,2.13,1.08-.8-.76-1.36-1.3-2.09-1.14l.51-.77c.72.23,1.46.8,1.92.85-.71-.64-1.21-1.09-1.9-.89l.1-.15Z"></path><path class="cls-15" d="M124.26,115.58a7.12,7.12,0,0,1,.49-.58c-.11.52.21,1,.65,1.64a15.26,15.26,0,0,0-.52-1.77c.13-.15.27-.29.41-.44l.11-.1c-.19.6.17,1.13.68,1.87a19.38,19.38,0,0,0-.58-2l.61-.58c-.21.68.24,1.3.87,2.17a22.18,22.18,0,0,0-.78-2.25l.22-.2.42-.36c-.22.72.26,1.39.94,2.32a22.37,22.37,0,0,0-.84-2.41l.74-.62c-.19.73.28,1.46.92,2.47a21.39,21.39,0,0,0-.75-2.61l.6-.48c-.2.79.31,1.59,1,2.69a23.41,23.41,0,0,0-.81-2.84l.16-.12.84-.62c-.24.81.23,1.75.89,3a25.68,25.68,0,0,0-.64-3.22l1-.65c-.39.92.15,2,.9,3.46.09-.76-.55-2.28-.7-3.59l.29-.18.9-.54c-.46,1,0,2.15.78,3.8.14-.82-.46-2.51-.54-3.93l1-.55c-.57,1.06,0,2.37.8,4.2.16-.89-.5-2.75-.58-4.3l.31-.16h0a.19.19,0,0,0,.08-.25.18.18,0,0,0-.25-.09l-.34.17c-1.45-.59-3-1.87-3.9-2,1.42,1.35,2.44,2.31,3.6,2.19q-.54.28-1,.6c-1.33-.55-2.75-1.73-3.58-1.87,1.31,1.25,2.26,2.14,3.34,2-.26.16-.52.32-.77.49l-.43.28c-1.2-.57-2.45-1.73-3.21-1.91,1.18,1.26,2,2.14,3.06,2-.34.23-.66.47-1,.71-1.1-.53-2.24-1.6-2.94-1.76,1.08,1.16,1.85,2,2.81,1.86l-.82.63-.2.16c-1-.55-1.9-1.61-2.54-1.82.89,1.15,1.51,2,2.49,1.86l-.77.64c-.89-.51-1.75-1.48-2.34-1.67.82,1.05,1.39,1.79,2.29,1.71-.27.23-.54.46-.8.7-.77-.51-1.5-1.43-2-1.63.68,1,1.16,1.69,2,1.68l-.43.4-.24.23c-.72-.47-1.38-1.32-1.86-1.51.62.92,1.06,1.57,1.81,1.56-.23.21-.45.43-.66.65-.66-.38-1.26-1.09-1.71-1.24.57.78,1,1.32,1.67,1.27l-.12.13-.46.5c-.6-.36-1.14-1-1.55-1.14.51.71.87,1.21,1.51,1.18-.18.2-.35.41-.52.63a.08.08,0,0,0,0,.09.06.06,0,0,0,.08,0Z"></path><path class="cls-15" d="M115.59,126.12l.87-.84c1.16.36,2.45,1.24,3.17,1.3-1.25-1-2.13-1.67-3.06-1.42q.38-.37.72-.75l.18-.18c1,.4,2.12,1.31,2.78,1.42-1-1-1.78-1.7-2.74-1.47.22-.24.45-.49.67-.75.95.38,1.95,1.21,2.56,1.31-1-.92-1.64-1.56-2.52-1.35l.69-.81c.84.39,1.69,1.19,2.23,1.32-.81-.89-1.38-1.51-2.18-1.38.12-.16.25-.31.37-.46l.21-.27a22,22,0,0,0,2,1.22c-.75-.82-1.28-1.39-2-1.27.19-.24.37-.49.55-.74.71.28,1.41.89,1.87,1-.67-.69-1.14-1.16-1.84-1l.1-.14.39-.56a18.3,18.3,0,0,0,1.7.89c-.61-.62-1-1.06-1.67-.94.15-.23.29-.46.42-.7a.08.08,0,0,0,0-.09.07.07,0,0,0-.08,0h0c-.12.22-.26.44-.4.65,0-.54-.35-1-.88-1.53a14.94,14.94,0,0,0,.78,1.67l-.35.49-.09.11c.09-.61-.34-1.09-1-1.74A20.48,20.48,0,0,0,120,121l-.52.66c.11-.69-.42-1.24-1.18-2,.09.5.78,1.32,1.11,2.11l-.19.22-.36.43c.11-.75-.47-1.34-1.28-2.16.1.54.84,1.41,1.19,2.27l-.63.71c.07-.75-.5-1.41-1.28-2.31a23.87,23.87,0,0,0,1.12,2.48l-.52.56c.08-.82-.54-1.53-1.39-2.52a26.78,26.78,0,0,0,1.22,2.69l-.14.15c-.24.25-.49.49-.74.73.13-.83-.48-1.7-1.32-2.87a27.5,27.5,0,0,0,1.1,3.08c-.28.27-.56.54-.85.79.25-1-.44-1.93-1.4-3.29,0,.77.88,2.18,1.22,3.45l-.26.22c-.26.23-.54.45-.81.67.31-1-.37-2.12-1.33-3.65,0,.82.8,2.38,1.1,3.76l.57,0c.23-.19.46-.38.68-.58l.39-.35a23,23,0,0,1,2.55,1.14l.56,0C117.4,126.47,116.51,125.86,115.59,126.12Z"></path><path class="cls-15" d="M111.49,123.84a15.46,15.46,0,0,0,1,3.19l.56,0A8,8,0,0,0,111.49,123.84Z"></path><path class="cls-15" d="M114.43,127.18l1.12.07A2,2,0,0,0,114.43,127.18Z"></path><path class="cls-15" d="M136,125.63l.06-.14-.27-.09-.14-.05a1.08,1.08,0,0,0,.57-.27c.07-.19.13-.4.19-.62a8.9,8.9,0,0,1-.89.84l-.79-.31c.7-.1,1.07-.76,1.58-1.71-.45.23-1,1.13-1.69,1.67l-.27-.11-.51-.22c.74-.12,1.14-.84,1.69-1.86-.49.25-1.11,1.21-1.82,1.8l-.88-.4c.74-.15,1.21-.88,1.84-1.89a21.54,21.54,0,0,0-2,1.8l-.69-.34c.81-.16,1.31-1,2-2.06-.58.25-1.36,1.3-2.21,2l-.18-.09-.92-.49c.84-.13,1.48-1,2.36-2.11a26.07,26.07,0,0,0-2.63,2l-1-.59c1,0,1.72-1,2.74-2.3-.73.25-1.83,1.48-2.94,2.17l-.29-.17c-.29-.19-.59-.39-.87-.59,1.07,0,1.92-1,3.09-2.33-.8.22-2.07,1.49-3.32,2.17l-.93-.69c1.2.06,2.14-1,3.45-2.52-.88.24-2.27,1.64-3.64,2.38l-.27-.22h0a.19.19,0,0,0-.23.3l.3.24c.09,1.56-.4,3.51-.16,4.39.61-1.86,1-3.2.43-4.19.32.24.66.47,1,.69.08,1.44-.37,3.23-.15,4,.57-1.73,1-3,.38-3.88.26.16.52.33.78.48s.29.18.44.27c0,1.33-.51,3-.35,3.72.63-1.61,1.07-2.74.51-3.63l1.05.59c0,1.22-.47,2.71-.32,3.41.58-1.48,1-2.52.47-3.34.31.16.61.32.93.47l.22.11c-.08,1.11-.63,2.42-.55,3.08.66-1.3,1.11-2.2.61-3,.3.14.6.29.91.42-.08,1-.55,2.15-.51,2.77h0c.58-1.16,1-2,.52-2.74l1,.42c-.1.75-.46,1.58-.57,2.16l.2,0c.47-.83.75-1.46.45-2.09l.54.22.31.12a10.53,10.53,0,0,1-.41,1.54l.34-.1a1.54,1.54,0,0,0,.14-1.41l.87.31a5.07,5.07,0,0,1-.14.76l.33-.2a1,1,0,0,0-.15-.54l.17.05Z"></path><path class="cls-15" d="M107.49,110.18h0a.19.19,0,0,0,.13-.24.19.19,0,0,0-.23-.13l-.37.11c-1.31-.85-2.6-2.4-3.45-2.73,1.14,1.59,2,2.73,3.13,2.83-.39.12-.77.25-1.15.39-.89-.59-1.76-1.51-2.48-2.08,0,.18,0,.34,0,.51.74,1,1.38,1.61,2.22,1.66l-.85.34-.48.2a9,9,0,0,1-.89-.78c0,.21,0,.41,0,.62a1.73,1.73,0,0,0,.74.23l-.76.35c0,.11,0,.21,0,.31l1-.43c-.56.83-.23,2,.24,3.57.22-.73-.12-2.35,0-3.65l.32-.13q.5-.19,1-.36c-.64.86-.35,2.12,0,3.87.29-.77,0-2.55.21-4,.36-.12.73-.24,1.1-.34-.76.93-.44,2.32,0,4.27.32-.85,0-2.8.23-4.34Z"></path><path class="cls-15" d="M102.92,114.82c0,.09,0,.17.07.26a6.72,6.72,0,0,0,0-1.93C103,113.72,103,114.28,102.92,114.82Z"></path><path class="cls-15" d="M105.54,125.65c-.09-.15-.18-.3-.28-.44.6-1.18,1.8-2.4,2-3.16-1.29,1.15-2.2,2-2.09,3-.22-.34-.45-.68-.68-1,.55-1.09,1.65-2.21,1.83-2.9-1.18,1-2,1.8-1.93,2.76l-.61-.84-.15-.2c.57-.95,1.65-1.86,1.88-2.49-1.18.86-2,1.46-1.92,2.44L103,122c.53-.87,1.52-1.71,1.73-2.29-1.08.79-1.83,1.34-1.77,2.24l-.46-.55a3,3,0,0,1,0,.31l.27.33a1.45,1.45,0,0,0-.28,0c0,.11,0,.21,0,.32l.43-.1c.16.2.31.41.47.62a1.61,1.61,0,0,0-.92,0c0,.15,0,.31,0,.46a7.2,7.2,0,0,1,1.08-.29l.12.16c.2.28.4.57.59.86a2.55,2.55,0,0,0-1.8.24c0,.13,0,.28,0,.41a18.08,18.08,0,0,1,2-.4c.22.32.43.65.63,1a3.15,3.15,0,0,0-2.55.38c0,.1,0,.2,0,.3l.17,0a21.5,21.5,0,0,1,2.49-.5l.18.29.32.57.42.05C105.85,126.17,105.7,125.9,105.54,125.65Z"></path><path class="cls-15" d="M102.65,118.93l0,.34a2.34,2.34,0,0,0,.52-.67Z"></path><path class="cls-15" d="M107,126.54l.66.07a10.08,10.08,0,0,0,1.33-2.42A11.49,11.49,0,0,0,107,126.54Z"></path><path class="cls-15" d="M106.25,126.46c.61-1.25,1.7-2.54,1.86-3.32-1.29,1.28-2.2,2.21-2.1,3.29Z"></path><path class="cls-15" d="M102.55,120.25c0,.2,0,.4,0,.59a10.46,10.46,0,0,0,1.42-1.64A6.83,6.83,0,0,0,102.55,120.25Z"></path></g><path class="cls-14" d="M154,102.16l3.27-3.47,4.53,6.38s-3.82,2.72-7.49,2.61l-.42-.94A5.15,5.15,0,0,1,154,102.16Z"></path><path class="cls-14" d="M162.47,99l1.28,2.41a2.26,2.26,0,0,1-.93,3l-1.07.58-4.53-6.38,2.59-.77A2.27,2.27,0,0,1,162.47,99Z"></path><path class="cls-14" d="M136.67,89.7l.27,1.42.31,1.5c.22,1,.44,2,.69,3,.49,2,1.06,3.93,1.68,5.81a38.26,38.26,0,0,0,2.19,5.26,14.18,14.18,0,0,0,2.72,3.78l-1.58-.78c-.46-.06-.54.08-.3.07a3.55,3.55,0,0,0,1.12-.32,18.44,18.44,0,0,0,3.15-1.84c1.1-.76,2.21-1.62,3.32-2.51s2.23-1.85,3.3-2.73l.12-.09a2.59,2.59,0,0,1,3.66.36,2.62,2.62,0,0,1,.31,2.84,37.4,37.4,0,0,1-2.49,4.11,36.51,36.51,0,0,1-3,3.82,22.9,22.9,0,0,1-4,3.54,13.07,13.07,0,0,1-2.95,1.5,8.61,8.61,0,0,1-2.09.46,8.07,8.07,0,0,1-2.63-.19,4.16,4.16,0,0,1-1.4-.64l-.18-.14a21.45,21.45,0,0,1-5.63-6.28,36.27,36.27,0,0,1-1.82-3.33c-.53-1.11-1-2.23-1.45-3.36a59.58,59.58,0,0,1-2.17-6.76c-.29-1.14-.57-2.27-.8-3.42-.11-.58-.23-1.15-.33-1.73s-.18-1.13-.28-1.83a5.18,5.18,0,0,1,10.21-1.71Z"></path><path class="cls-15" d="M129.57,81.94c4.3.44,7.75,3.29,10.15,12.39-1.85,2.56-13.5,8.18-13.5,8.18S119.73,80.92,129.57,81.94Z"></path></svg> 